<?xml version="1.0" encoding="UTF-8"?>
<svg id="Layer_2" data-name="Layer 2" xmlns="http://www.w3.org/2000/svg" viewBox="0 0 469.71 469.71">
  <g id="Layer_1-2" data-name="Layer 1">
    <path d="M469.71,236.66c-.51,64.17-26.72,122.19-68.79,164.26-42.48,42.53-101.24,68.79-166.06,68.79H0l296.59-125.27c6.26-2.65,10.33-8.78,10.33-15.58v-197.38c0-9.34-7.57-16.92-16.91-16.92h-119.33c-9.34,0-16.91,7.57-16.91,16.92v197.52c0,6.8-4.07,12.94-10.33,15.58L0,405.17V16.92C0,7.58,7.57,0,16.91,0h213.73c130.18,0,239.98,106.47,239.06,236.66"/>
  </g>
</svg>