<?xml version="1.0" encoding="UTF-8"?>
<svg id="Layer_2" data-name="Layer 2" xmlns="http://www.w3.org/2000/svg" xmlns:xlink="http://www.w3.org/1999/xlink" viewBox="0 0 955.9 191.11">
  <defs>
    <style>
      .cls-1 {
        fill: url(#linear-gradient);
      }

      .cls-2 {
        fill: #23297d;
      }
    </style>
    <linearGradient id="linear-gradient" x1="4.1" y1="186.69" x2="146.11" y2="-.52" gradientUnits="userSpaceOnUse">
      <stop offset="0" stop-color="#bda2ff"/>
      <stop offset="1" stop-color="#5b00ff"/>
    </linearGradient>
  </defs>
  <g id="Layer_1-2" data-name="Layer 1">
    <g>
      <path class="cls-2" d="M254.57,39.5h43.66c42.27,0,62.7,26.2,62.7,61.3s-20.43,60.95-62.7,60.95h-43.66V39.5ZM295.26,139.75c28.99,0,40.34-16.77,40.34-38.95s-11.35-39.29-40.34-39.29h-16.24v78.24h16.24Z"/>
      <path class="cls-2" d="M363.54,116.52c0-26.2,20.26-47.68,48.38-47.68s48.38,21.48,48.38,47.68-20.26,47.5-48.38,47.5-48.38-21.31-48.38-47.5M411.91,142.54c15.02,0,24.8-11.87,24.8-26.02s-9.78-26.2-24.8-26.2-24.8,12.05-24.8,26.2,9.78,26.02,24.8,26.02"/>
      <path class="cls-2" d="M462.9,116.52c0-26.2,20.26-47.68,48.38-47.68s48.38,21.48,48.38,47.68-20.26,47.5-48.38,47.5-48.38-21.31-48.38-47.5M511.28,142.54c15.02,0,24.8-11.87,24.8-26.02s-9.78-26.2-24.8-26.2-24.8,12.05-24.8,26.2,9.78,26.02,24.8,26.02"/>
      <path class="cls-2" d="M566.64,70.93h22.88v17.29c3.15-13.1,12.4-20.26,26.45-19.39v22.18h-1.65c-13.62,0-24.1,9.08-24.1,24.28v46.46h-23.58v-90.82Z"/>
      <path class="cls-2" d="M667.23,88.05c-10.66-3.32-19.39-6.28-19.39-15.37,0-8.21,7.16-13.45,16.93-13.45,8,0,13.29,3.38,18.48,10.63l23.09-9.76c-9.08-14.32-21.31-22.7-40.34-22.7-25.86,0-43.15,14.49-43.15,36.49,0,18.53,12.05,29.52,30.92,34.41,15.01,3.85,27.94,7.69,27.94,19.92,0,8.38-6.99,13.96-18.34,13.96-9.56,0-18.7-4.36-25.01-14.33l-23.19,9.8c10.65,18.68,27.42,26.37,46.81,26.37,27.77,0,44.7-15.02,44.7-37.21,0-27.94-25.14-34.22-39.46-38.77"/>
      <path class="cls-2" d="M760.83,91.02v-20.08h-23.19v-20.79l-23.58,9.96v73.53c0,19.73,9.77,28.12,27.77,28.12h16.91v-20.96h-13.76c-4.53,0-7.33-2.63-7.33-8.38v-41.4h23.19Z"/>
      <path class="cls-2" d="M760.13,116.69c0-26.2,19.91-47.68,44.88-47.68,15.72,0,23.93,6.46,28.82,16.24v-14.32h23.4v90.82h-22.88v-14.85c-4.89,10.3-13.1,17.12-29.34,17.12-24.98,0-44.88-21.13-44.88-47.33M808.86,142.71c15.54,0,25.5-11.87,25.5-26.02s-9.96-26.37-25.5-26.37-25.15,12.05-25.15,26.2,10.13,26.2,25.15,26.2"/>
      <polygon class="cls-2" points="893.03 116.34 860.72 70.93 888.84 70.93 907.35 99.75 926.56 70.93 954.16 70.93 921.85 116.69 955.9 161.75 927.26 161.75 907.52 132.76 887.09 161.75 858.97 161.75 893.03 116.34"/>
      <path class="cls-1" d="M191.11,96.29c-.21,26.11-10.87,49.71-27.99,66.83-17.29,17.31-41.19,27.99-67.56,27.99H0l120.67-50.97c2.55-1.08,4.2-3.57,4.2-6.34V53.49c0-3.8-3.08-6.88-6.88-6.88h-48.55c-3.8,0-6.88,3.08-6.88,6.88v80.36c0,2.77-1.66,5.26-4.2,6.34L0,164.85V6.88C0,3.08,3.08,0,6.88,0h86.96c52.97,0,97.64,43.32,97.26,96.29"/>
    </g>
  </g>
</svg>